<?xml version="1.0" encoding="UTF-8"?>
<svg xmlns="http://www.w3.org/2000/svg" xmlns:xlink="http://www.w3.org/1999/xlink" width="200px" height="200px" viewBox="0 0 200 74" version="1.1">
<defs>
<clipPath id="clip1">
  <path d="M 130 4 L 174 4 L 174 45 L 130 45 Z M 130 4 "/>
</clipPath>
<clipPath id="clip2">
  <path d="M 170.210938 10.796875 C 163.992188 2.5625 150.816406 2.003906 140.78125 9.554688 C 130.746094 17.101562 127.652344 29.894531 133.871094 38.128906 C 140.089844 46.367188 153.265625 46.921875 163.300781 39.375 C 173.335938 31.828125 176.429688 19.03125 170.210938 10.796875 Z M 170.210938 10.796875 "/>
</clipPath>
<clipPath id="clip3">
  <path d="M 108.277344 20.378906 L 160.136719 -18.625 L 196.019531 28.902344 L 144.160156 67.90625 Z M 108.277344 20.378906 "/>
</clipPath>
<clipPath id="clip4">
  <path d="M 170.210938 10.796875 C 163.992188 2.5625 150.816406 2.003906 140.78125 9.554688 C 130.746094 17.101562 127.652344 29.894531 133.871094 38.128906 C 140.089844 46.367188 153.265625 46.921875 163.300781 39.375 C 173.335938 31.828125 176.429688 19.03125 170.210938 10.796875 Z M 170.210938 10.796875 "/>
</clipPath>
<clipPath id="clip5">
  <path d="M 122.71875 23.554688 L 159.03125 -3.757812 L 181.570312 26.09375 L 145.257812 53.40625 Z M 122.71875 23.554688 "/>
</clipPath>
<clipPath id="clip6">
  <path d="M 130 4 L 174 4 L 174 45 L 130 45 Z M 130 4 "/>
</clipPath>
<clipPath id="clip7">
  <path d="M 170.210938 10.796875 C 163.992188 2.5625 150.816406 2.003906 140.78125 9.554688 C 130.746094 17.101562 127.652344 29.894531 133.871094 38.128906 C 140.089844 46.367188 153.265625 46.921875 163.300781 39.375 C 173.335938 31.828125 176.429688 19.03125 170.210938 10.796875 Z M 170.210938 10.796875 "/>
</clipPath>
<clipPath id="clip8">
  <path d="M 108.277344 20.378906 L 160.136719 -18.625 L 196.019531 28.902344 L 144.160156 67.90625 Z M 108.277344 20.378906 "/>
</clipPath>
<clipPath id="clip9">
  <path d="M 170.210938 10.796875 C 163.992188 2.5625 150.816406 2.003906 140.78125 9.554688 C 130.746094 17.101562 127.652344 29.894531 133.871094 38.128906 C 140.089844 46.367188 153.265625 46.921875 163.300781 39.375 C 173.335938 31.828125 176.429688 19.03125 170.210938 10.796875 Z M 170.210938 10.796875 "/>
</clipPath>
<clipPath id="clip10">
  <path d="M 127.894531 41.480469 L 140.425781 -2.140625 L 176.425781 8.160156 L 163.894531 51.785156 Z M 127.894531 41.480469 "/>
</clipPath>
<clipPath id="clip11">
  <path d="M 130 4 L 174 4 L 174 45 L 130 45 Z M 130 4 "/>
</clipPath>
<clipPath id="clip12">
  <path d="M 170.210938 10.796875 C 163.992188 2.5625 150.816406 2.003906 140.78125 9.554688 C 130.746094 17.101562 127.652344 29.894531 133.871094 38.128906 C 140.089844 46.367188 153.265625 46.921875 163.300781 39.375 C 173.335938 31.828125 176.429688 19.03125 170.210938 10.796875 Z M 170.210938 10.796875 "/>
</clipPath>
<clipPath id="clip13">
  <path d="M 108.277344 20.378906 L 160.136719 -18.625 L 196.019531 28.902344 L 144.160156 67.90625 Z M 108.277344 20.378906 "/>
</clipPath>
<clipPath id="clip14">
  <path d="M 170.210938 10.796875 C 163.992188 2.5625 150.816406 2.003906 140.78125 9.554688 C 130.746094 17.101562 127.652344 29.894531 133.871094 38.128906 C 140.089844 46.367188 153.265625 46.921875 163.300781 39.375 C 173.335938 31.828125 176.429688 19.03125 170.210938 10.796875 Z M 170.210938 10.796875 "/>
</clipPath>
<clipPath id="clip15">
  <path d="M 122.71875 23.554688 L 159.03125 -3.757812 L 181.570312 26.09375 L 145.257812 53.40625 Z M 122.71875 23.554688 "/>
</clipPath>
<clipPath id="clip16">
  <path d="M 130 4 L 174 4 L 174 45 L 130 45 Z M 130 4 "/>
</clipPath>
<clipPath id="clip17">
  <path d="M 170.210938 10.796875 C 163.992188 2.5625 150.816406 2.003906 140.78125 9.554688 C 130.746094 17.101562 127.652344 29.894531 133.871094 38.128906 C 140.089844 46.367188 153.265625 46.921875 163.300781 39.375 C 173.335938 31.828125 176.429688 19.03125 170.210938 10.796875 Z M 170.210938 10.796875 "/>
</clipPath>
<clipPath id="clip18">
  <path d="M 108.277344 20.378906 L 160.136719 -18.625 L 196.019531 28.902344 L 144.160156 67.90625 Z M 108.277344 20.378906 "/>
</clipPath>
<clipPath id="clip19">
  <path d="M 170.210938 10.796875 C 163.992188 2.5625 150.816406 2.003906 140.78125 9.554688 C 130.746094 17.101562 127.652344 29.894531 133.871094 38.128906 C 140.089844 46.367188 153.265625 46.921875 163.300781 39.375 C 173.335938 31.828125 176.429688 19.03125 170.210938 10.796875 Z M 170.210938 10.796875 "/>
</clipPath>
<clipPath id="clip20">
  <path d="M 127.894531 41.480469 L 140.425781 -2.140625 L 176.425781 8.160156 L 163.894531 51.785156 Z M 127.894531 41.480469 "/>
</clipPath>
<clipPath id="clip21">
  <path d="M 130 4 L 174 4 L 174 45 L 130 45 Z M 130 4 "/>
</clipPath>
<clipPath id="clip22">
  <path d="M 170.210938 10.796875 C 163.992188 2.5625 150.816406 2.003906 140.78125 9.554688 C 130.746094 17.101562 127.652344 29.894531 133.871094 38.128906 C 140.089844 46.367188 153.265625 46.921875 163.300781 39.375 C 173.335938 31.828125 176.429688 19.03125 170.210938 10.796875 Z M 170.210938 10.796875 "/>
</clipPath>
<clipPath id="clip23">
  <path d="M 108.277344 20.378906 L 160.136719 -18.625 L 196.019531 28.902344 L 144.160156 67.90625 Z M 108.277344 20.378906 "/>
</clipPath>
<clipPath id="clip24">
  <path d="M 170.210938 10.796875 C 163.992188 2.5625 150.816406 2.003906 140.78125 9.554688 C 130.746094 17.101562 127.652344 29.894531 133.871094 38.128906 C 140.089844 46.367188 153.265625 46.921875 163.300781 39.375 C 173.335938 31.828125 176.429688 19.03125 170.210938 10.796875 Z M 170.210938 10.796875 "/>
</clipPath>
<clipPath id="clip25">
  <path d="M 130 4 L 174 4 L 174 45 L 130 45 Z M 130 4 "/>
</clipPath>
<clipPath id="clip26">
  <path d="M 170.210938 10.796875 C 163.992188 2.5625 150.816406 2.003906 140.78125 9.554688 C 130.746094 17.101562 127.652344 29.894531 133.871094 38.128906 C 140.089844 46.367188 153.265625 46.921875 163.300781 39.375 C 173.335938 31.828125 176.429688 19.03125 170.210938 10.796875 Z M 170.210938 10.796875 "/>
</clipPath>
<clipPath id="clip27">
  <path d="M 108.277344 20.378906 L 160.136719 -18.625 L 196.019531 28.902344 L 144.160156 67.90625 Z M 108.277344 20.378906 "/>
</clipPath>
<clipPath id="clip28">
  <path d="M 141 12 L 165 12 L 165 37 L 141 37 Z M 141 12 "/>
</clipPath>
<clipPath id="clip29">
  <path d="M 170.210938 10.796875 C 163.992188 2.5625 150.816406 2.003906 140.78125 9.554688 C 130.746094 17.101562 127.652344 29.894531 133.871094 38.128906 C 140.089844 46.367188 153.265625 46.921875 163.300781 39.375 C 173.335938 31.828125 176.429688 19.03125 170.210938 10.796875 Z M 170.210938 10.796875 "/>
</clipPath>
<clipPath id="clip30">
  <path d="M 108.277344 20.378906 L 160.136719 -18.625 L 196.019531 28.902344 L 144.160156 67.90625 Z M 108.277344 20.378906 "/>
</clipPath>
</defs>
<g id="surface1">
<path style=" stroke:none;fill-rule:nonzero;fill:rgb(0%,0%,0%);fill-opacity:1;" d="M 103.25 24.511719 L 112.75 23.898438 C 112.964844 25.449219 113.363281 26.601562 114.011719 27.429688 C 115.058594 28.726562 116.503906 29.375 118.417969 29.375 C 119.828125 29.375 120.945312 29.050781 121.703125 28.367188 C 122.425781 27.828125 122.859375 26.960938 122.859375 26.058594 C 122.859375 25.195312 122.460938 24.367188 121.777344 23.824219 C 121.054688 23.175781 119.355469 22.527344 116.683594 21.953125 C 112.316406 20.976562 109.171875 19.679688 107.332031 18.023438 C 105.488281 16.472656 104.441406 14.203125 104.515625 11.785156 C 104.515625 10.128906 105.019531 8.46875 105.957031 7.101562 C 107.042969 5.550781 108.523438 4.324219 110.292969 3.640625 C 112.207031 2.8125 114.878906 2.378906 118.238281 2.378906 C 122.355469 2.378906 125.496094 3.136719 127.664062 4.6875 C 129.828125 6.199219 131.128906 8.652344 131.527344 12.003906 L 122.136719 12.542969 C 121.886719 11.101562 121.378906 10.054688 120.546875 9.371094 C 119.71875 8.6875 118.632812 8.363281 117.226562 8.363281 C 116.070312 8.363281 115.203125 8.613281 114.625 9.082031 C 114.085938 9.515625 113.722656 10.164062 113.757812 10.886719 C 113.757812 11.425781 114.046875 11.929688 114.480469 12.253906 C 114.949219 12.6875 116.070312 13.085938 117.839844 13.445312 C 122.210938 14.382812 125.316406 15.320312 127.230469 16.292969 C 129.144531 17.265625 130.515625 18.453125 131.347656 19.859375 C 132.214844 21.300781 132.648438 22.960938 132.609375 24.65625 C 132.609375 26.671875 132.03125 28.691406 130.878906 30.386719 C 129.683594 32.152344 128.023438 33.523438 126.074219 34.351562 C 124.015625 35.25 121.414062 35.71875 118.308594 35.71875 C 112.820312 35.71875 109.027344 34.675781 106.898438 32.546875 C 104.765625 30.421875 103.503906 27.753906 103.25 24.511719 Z M 2.457031 35.179688 L 2.457031 2.957031 L 19.105469 2.957031 C 22.175781 2.957031 24.558594 3.207031 26.183594 3.75 C 27.773438 4.253906 29.179688 5.296875 30.121094 6.703125 C 31.167969 8.253906 31.671875 10.054688 31.636719 11.929688 C 31.746094 15.101562 30.121094 18.128906 27.339844 19.714844 C 26.257812 20.328125 25.066406 20.761719 23.835938 20.976562 C 24.738281 21.230469 25.640625 21.664062 26.4375 22.167969 C 27.050781 22.671875 27.554688 23.25 28.027344 23.863281 C 28.566406 24.472656 29.035156 25.160156 29.433594 25.878906 L 34.273438 35.214844 L 22.933594 35.214844 L 17.589844 25.304688 C 16.902344 24.042969 16.324219 23.210938 15.785156 22.816406 C 15.0625 22.3125 14.195312 22.058594 13.328125 22.058594 L 12.460938 22.058594 L 12.460938 35.144531 L 2.457031 35.144531 Z M 12.460938 16.003906 L 16.6875 16.003906 C 17.589844 15.933594 18.457031 15.789062 19.324219 15.570312 C 19.972656 15.464844 20.550781 15.101562 20.949219 14.5625 C 21.921875 13.265625 21.777344 11.425781 20.585938 10.308594 C 19.9375 9.769531 18.671875 9.480469 16.867188 9.480469 L 12.460938 9.480469 Z M 0.183594 62.789062 L 9.679688 62.175781 C 9.898438 63.726562 10.292969 64.878906 10.945312 65.710938 C 11.957031 67.007812 13.4375 67.691406 15.351562 67.691406 C 16.757812 67.691406 17.878906 67.367188 18.636719 66.683594 C 19.359375 66.105469 19.792969 65.277344 19.792969 64.375 C 19.792969 63.511719 19.394531 62.683594 18.707031 62.140625 C 17.984375 61.492188 16.289062 60.84375 13.582031 60.265625 C 9.210938 59.292969 6.070312 57.996094 4.226562 56.339844 C 2.386719 54.789062 1.335938 52.515625 1.410156 50.101562 C 1.410156 48.445312 1.914062 46.785156 2.855469 45.417969 C 3.9375 43.867188 5.417969 42.640625 7.1875 41.957031 C 9.101562 41.128906 11.773438 40.695312 15.132812 40.695312 C 19.25 40.695312 22.390625 41.453125 24.558594 43 C 26.726562 44.550781 27.988281 46.964844 28.386719 50.320312 L 18.996094 50.859375 C 18.746094 49.417969 18.238281 48.371094 17.410156 47.6875 C 16.613281 47.003906 15.496094 46.679688 14.085938 46.714844 C 12.929688 46.714844 12.0625 46.964844 11.484375 47.472656 C 10.90625 47.902344 10.582031 48.550781 10.617188 49.273438 C 10.617188 49.8125 10.90625 50.320312 11.339844 50.644531 C 11.8125 51.074219 12.929688 51.472656 14.699219 51.832031 C 19.070312 52.769531 22.175781 53.707031 24.089844 54.679688 C 26.003906 55.652344 27.375 56.84375 28.207031 58.25 C 29.074219 59.691406 29.507812 61.347656 29.507812 63.007812 C 29.507812 65.023438 28.890625 67.007812 27.773438 68.703125 C 26.582031 70.46875 24.921875 71.835938 22.96875 72.667969 C 20.910156 73.566406 18.3125 74.035156 15.207031 74.035156 C 9.714844 74.035156 5.925781 72.992188 3.792969 70.863281 C 1.664062 68.703125 0.472656 66.035156 0.183594 62.789062 Z M 0.183594 62.789062 "/>
<path style=" stroke:none;fill-rule:nonzero;fill:rgb(0%,0%,0%);fill-opacity:1;" d="M 48.214844 60.265625 L 56.953125 62.898438 C 56.484375 65.097656 55.507812 67.1875 54.171875 69.027344 C 52.945312 70.648438 51.320312 71.910156 49.476562 72.738281 C 47.597656 73.566406 45.214844 74 42.328125 74 C 38.824219 74 35.933594 73.496094 33.730469 72.484375 C 31.492188 71.476562 29.578125 69.675781 27.953125 67.117188 C 26.328125 64.554688 25.535156 61.277344 25.535156 57.273438 C 25.535156 51.941406 26.941406 47.832031 29.796875 44.984375 C 32.648438 42.136719 36.65625 40.695312 41.855469 40.695312 C 45.9375 40.695312 49.117188 41.523438 51.464844 43.144531 C 53.773438 44.804688 55.507812 47.328125 56.664062 50.714844 L 47.851562 52.660156 C 47.636719 51.90625 47.308594 51.148438 46.878906 50.5 C 46.335938 49.742188 45.648438 49.164062 44.820312 48.734375 C 43.988281 48.300781 43.050781 48.121094 42.109375 48.121094 C 39.835938 48.121094 38.101562 49.019531 36.910156 50.859375 C 36.007812 52.191406 35.539062 54.320312 35.539062 57.203125 C 35.539062 60.773438 36.078125 63.222656 37.164062 64.554688 C 38.246094 65.890625 39.761719 66.539062 41.75 66.539062 C 43.664062 66.539062 45.109375 66 46.082031 64.953125 C 47.058594 63.835938 47.78125 62.285156 48.214844 60.265625 Z M 68.617188 41.234375 L 78.585938 41.234375 L 78.585938 52.515625 L 89.492188 52.515625 L 89.492188 41.234375 L 99.53125 41.234375 L 99.53125 73.460938 L 89.492188 73.460938 L 89.492188 60.410156 L 78.585938 60.410156 L 78.585938 73.460938 L 68.617188 73.460938 Z M 68.617188 41.234375 "/>
<path style=" stroke:none;fill-rule:nonzero;fill:rgb(0%,0%,0%);fill-opacity:1;" d="M 98.160156 57.347656 C 98.160156 52.085938 99.640625 47.976562 102.5625 45.054688 C 105.488281 42.136719 109.605469 40.660156 114.84375 40.660156 C 120.222656 40.660156 124.339844 42.101562 127.265625 44.984375 C 130.191406 47.867188 131.636719 51.90625 131.636719 57.09375 C 131.636719 60.878906 130.984375 63.945312 129.722656 66.359375 C 128.492188 68.738281 126.578125 70.683594 124.230469 71.980469 C 121.8125 73.316406 118.816406 74 115.238281 74 C 111.59375 74 108.59375 73.421875 106.210938 72.269531 C 103.753906 71.042969 101.734375 69.132812 100.398438 66.792969 C 98.917969 64.269531 98.160156 61.132812 98.160156 57.347656 Z M 108.125 57.382812 C 108.125 60.628906 108.738281 62.96875 109.929688 64.410156 C 111.121094 65.816406 112.785156 66.539062 114.878906 66.539062 C 117.007812 66.539062 118.671875 65.855469 119.863281 64.449219 C 121.054688 63.042969 121.632812 60.554688 121.632812 56.949219 C 121.632812 53.921875 121.019531 51.6875 119.789062 50.320312 C 118.5625 48.914062 116.902344 48.226562 114.804688 48.226562 C 112.964844 48.15625 111.195312 48.949219 109.96875 50.355469 C 108.738281 51.761719 108.125 54.101562 108.125 57.382812 Z M 141.855469 57.347656 C 141.855469 52.085938 143.335938 47.976562 146.261719 45.054688 C 149.1875 42.136719 153.304688 40.660156 158.539062 40.660156 C 163.921875 40.660156 168.074219 42.101562 170.964844 44.984375 C 173.851562 47.867188 175.332031 51.90625 175.332031 57.09375 C 175.332031 60.878906 174.683594 63.945312 173.417969 66.359375 C 172.191406 68.738281 170.277344 70.683594 167.929688 71.980469 C 165.511719 73.316406 162.511719 74 158.9375 74 C 155.289062 74 152.292969 73.421875 149.910156 72.269531 C 147.453125 71.042969 145.429688 69.132812 144.09375 66.792969 C 142.613281 64.269531 141.855469 61.132812 141.855469 57.347656 Z M 151.824219 57.382812 C 151.824219 60.628906 152.4375 62.96875 153.628906 64.410156 C 154.820312 65.816406 156.480469 66.539062 158.574219 66.539062 C 160.707031 66.539062 162.367188 65.855469 163.558594 64.449219 C 164.75 63.042969 165.328125 60.554688 165.328125 56.949219 C 165.328125 53.921875 164.714844 51.6875 163.488281 50.320312 C 162.257812 48.914062 160.597656 48.226562 158.503906 48.226562 C 156.660156 48.15625 154.855469 48.949219 153.664062 50.355469 C 152.4375 51.761719 151.824219 54.101562 151.824219 57.382812 Z M 151.824219 57.382812 "/>
<path style=" stroke:none;fill-rule:nonzero;fill:rgb(0%,0%,0%);fill-opacity:1;" d="M 174.285156 41.234375 L 184.253906 41.234375 L 184.253906 65.53125 L 199.816406 65.53125 L 199.816406 73.460938 L 174.25 73.460938 L 174.25 41.234375 Z M 174.285156 41.234375 "/>
<path style=" stroke:none;fill-rule:nonzero;fill:rgb(100%,100%,100%);fill-opacity:1;" d="M 170.210938 10.796875 C 163.992188 2.5625 150.816406 2.003906 140.78125 9.554688 C 130.746094 17.101562 127.652344 29.894531 133.871094 38.128906 C 140.089844 46.367188 153.265625 46.921875 163.300781 39.375 C 173.335938 31.828125 176.429688 19.03125 170.210938 10.796875 Z M 170.210938 10.796875 "/>
<g clip-path="url(#clip1)" clip-rule="nonzero">
<g clip-path="url(#clip2)" clip-rule="nonzero">
<path style=" stroke:none;fill-rule:nonzero;fill:rgb(100%,100%,100%);fill-opacity:1;" d="M 108.277344 20.378906 L 160.136719 -18.625 L 196.019531 28.902344 L 144.160156 67.90625 Z M 108.277344 20.378906 "/>
<g clip-path="url(#clip3)" clip-rule="nonzero">
<path style=" stroke:none;fill-rule:nonzero;fill:rgb(100%,100%,100%);fill-opacity:1;" d="M 170.210938 10.796875 C 163.992188 2.5625 150.816406 2.003906 140.78125 9.554688 C 130.746094 17.101562 127.652344 29.894531 133.871094 38.128906 C 140.089844 46.367188 153.265625 46.921875 163.300781 39.375 C 173.335938 31.828125 176.429688 19.03125 170.210938 10.796875 Z M 170.210938 10.796875 "/>
<g clip-path="url(#clip4)" clip-rule="nonzero">
<path style=" stroke:none;fill-rule:nonzero;fill:rgb(100%,100%,100%);fill-opacity:1;" d="M 122.71875 23.554688 L 159.03125 -3.757812 L 181.570312 26.09375 L 145.257812 53.40625 Z M 122.71875 23.554688 "/>
<g clip-path="url(#clip5)" clip-rule="nonzero">
<path style="fill-rule:nonzero;fill:rgb(100%,100%,100%);fill-opacity:1;stroke-width:4;stroke-linecap:butt;stroke-linejoin:miter;stroke:rgb(0%,0%,0%);stroke-opacity:1;stroke-miterlimit:10;" d="M 483.501576 67.89788 C 483.497926 39.289931 455.29328 16.094948 420.493934 16.101286 C 385.701111 16.09897 357.49948 39.287934 357.50313 67.895883 C 357.500258 96.512487 385.711427 119.698815 420.50425 119.701131 C 455.297073 119.703447 483.505226 96.505829 483.501576 67.89788 Z M 483.501576 67.89788 " transform="matrix(0.288412,-0.216928,0.217342,0.287863,16.006454,96.136684)"/>
</g>
</g>
</g>
</g>
</g>
<g clip-path="url(#clip6)" clip-rule="nonzero">
<g clip-path="url(#clip7)" clip-rule="nonzero">
<g clip-path="url(#clip8)" clip-rule="nonzero">
<g clip-path="url(#clip9)" clip-rule="nonzero">
<g clip-path="url(#clip10)" clip-rule="nonzero">
<path style="fill:none;stroke-width:4;stroke-linecap:butt;stroke-linejoin:miter;stroke:rgb(0%,0%,0%);stroke-opacity:1;stroke-miterlimit:10;" d="M 357.796872 17.002044 L 483.702238 16.999549 L 483.705379 120.701182 L 357.800013 120.703676 Z M 357.796872 17.002044 " transform="matrix(0.288415,-0.216923,0.217337,0.287867,15.829469,96.274771)"/>
</g>
</g>
</g>
</g>
</g>
<g clip-path="url(#clip11)" clip-rule="nonzero">
<g clip-path="url(#clip12)" clip-rule="nonzero">
<g clip-path="url(#clip13)" clip-rule="nonzero">
<g clip-path="url(#clip14)" clip-rule="nonzero">
<path style="fill:none;stroke-width:4;stroke-linecap:butt;stroke-linejoin:miter;stroke:rgb(0%,0%,0%);stroke-opacity:1;stroke-miterlimit:10;" d="M 483.501576 67.89788 C 483.497926 39.289931 455.29328 16.094948 420.493934 16.101286 C 385.701111 16.09897 357.49948 39.287934 357.50313 67.895883 C 357.500258 96.512487 385.711427 119.698815 420.50425 119.701131 C 455.297073 119.703447 483.505226 96.505829 483.501576 67.89788 Z M 483.501576 67.89788 " transform="matrix(0.288412,-0.216928,0.217342,0.287863,16.006454,96.136684)"/>
<path style=" stroke:none;fill-rule:nonzero;fill:rgb(100%,100%,100%);fill-opacity:1;" d="M 122.71875 23.554688 L 159.03125 -3.757812 L 181.570312 26.09375 L 145.257812 53.40625 Z M 122.71875 23.554688 "/>
<g clip-path="url(#clip15)" clip-rule="nonzero">
<path style="fill-rule:nonzero;fill:rgb(100%,100%,100%);fill-opacity:1;stroke-width:4;stroke-linecap:butt;stroke-linejoin:miter;stroke:rgb(0%,0%,0%);stroke-opacity:1;stroke-miterlimit:10;" d="M 483.501576 67.89788 C 483.497926 39.289931 455.29328 16.094948 420.493934 16.101286 C 385.701111 16.09897 357.49948 39.287934 357.50313 67.895883 C 357.500258 96.512487 385.711427 119.698815 420.50425 119.701131 C 455.297073 119.703447 483.505226 96.505829 483.501576 67.89788 Z M 483.501576 67.89788 " transform="matrix(0.288412,-0.216928,0.217342,0.287863,16.006454,96.136684)"/>
</g>
</g>
</g>
</g>
</g>
<g clip-path="url(#clip16)" clip-rule="nonzero">
<g clip-path="url(#clip17)" clip-rule="nonzero">
<g clip-path="url(#clip18)" clip-rule="nonzero">
<g clip-path="url(#clip19)" clip-rule="nonzero">
<g clip-path="url(#clip20)" clip-rule="nonzero">
<path style="fill:none;stroke-width:4;stroke-linecap:butt;stroke-linejoin:miter;stroke:rgb(0%,0%,0%);stroke-opacity:1;stroke-miterlimit:10;" d="M 357.796872 17.002044 L 483.702238 16.999549 L 483.705379 120.701182 L 357.800013 120.703676 Z M 357.796872 17.002044 " transform="matrix(0.288415,-0.216923,0.217337,0.287867,15.829469,96.274771)"/>
</g>
</g>
</g>
</g>
</g>
<g clip-path="url(#clip21)" clip-rule="nonzero">
<g clip-path="url(#clip22)" clip-rule="nonzero">
<g clip-path="url(#clip23)" clip-rule="nonzero">
<g clip-path="url(#clip24)" clip-rule="nonzero">
<path style="fill:none;stroke-width:4;stroke-linecap:butt;stroke-linejoin:miter;stroke:rgb(0%,0%,0%);stroke-opacity:1;stroke-miterlimit:10;" d="M 330.898133 -14.205007 L 510.705095 -14.20056 L 510.702491 150.901581 L 330.895529 150.897134 Z M 330.898133 -14.205007 " transform="matrix(0.288412,-0.216928,0.217342,0.287863,15.929832,96.249111)"/>
</g>
</g>
</g>
</g>
<g clip-path="url(#clip25)" clip-rule="nonzero">
<g clip-path="url(#clip26)" clip-rule="nonzero">
<g clip-path="url(#clip27)" clip-rule="nonzero">
<path style="fill:none;stroke-width:4;stroke-linecap:butt;stroke-linejoin:miter;stroke:rgb(0%,0%,0%);stroke-opacity:1;stroke-miterlimit:10;" d="M 483.501576 67.89788 C 483.497926 39.289931 455.29328 16.094948 420.493934 16.101286 C 385.701111 16.09897 357.49948 39.287934 357.50313 67.895883 C 357.500258 96.512487 385.711427 119.698815 420.50425 119.701131 C 455.297073 119.703447 483.505226 96.505829 483.501576 67.89788 Z M 483.501576 67.89788 " transform="matrix(0.288412,-0.216928,0.217342,0.287863,16.006454,96.136684)"/>
</g>
</g>
</g>
<g clip-path="url(#clip28)" clip-rule="nonzero">
<g clip-path="url(#clip29)" clip-rule="nonzero">
<g clip-path="url(#clip30)" clip-rule="nonzero">
<path style=" stroke:none;fill-rule:nonzero;fill:rgb(0%,0%,0%);fill-opacity:1;" d="M 141.890625 22.09375 L 145.503906 19.574219 L 149.945312 25.878906 C 150.703125 26.890625 151.28125 27.972656 151.714844 29.160156 C 151.96875 30.0625 151.894531 31.035156 151.535156 31.898438 C 151.066406 32.980469 150.304688 33.882812 149.296875 34.53125 C 148.101562 35.359375 147.09375 35.828125 146.226562 35.972656 C 145.394531 36.117188 144.527344 35.972656 143.734375 35.613281 C 142.867188 35.179688 142.109375 34.566406 141.53125 33.773438 L 144.636719 30.890625 C 144.890625 31.285156 145.214844 31.648438 145.574219 31.9375 C 145.828125 32.117188 146.117188 32.222656 146.441406 32.222656 C 146.695312 32.222656 146.949219 32.117188 147.128906 31.972656 C 147.488281 31.753906 147.742188 31.324219 147.707031 30.890625 C 147.597656 30.277344 147.34375 29.664062 146.949219 29.195312 Z M 152.726562 26.097656 L 156.011719 23.5 C 156.375 23.933594 156.84375 24.257812 157.347656 24.4375 C 158.070312 24.65625 158.828125 24.511719 159.441406 24.042969 C 159.875 23.753906 160.238281 23.355469 160.382812 22.851562 C 160.597656 22.203125 160.238281 21.484375 159.585938 21.265625 C 159.480469 21.230469 159.371094 21.195312 159.261719 21.195312 C 158.828125 21.160156 158.070312 21.339844 156.949219 21.808594 C 155.109375 22.5625 153.664062 22.851562 152.582031 22.746094 C 151.535156 22.636719 150.558594 22.09375 149.980469 21.195312 C 149.546875 20.582031 149.332031 19.859375 149.296875 19.140625 C 149.296875 18.3125 149.511719 17.480469 149.980469 16.796875 C 150.667969 15.824219 151.496094 14.996094 152.507812 14.347656 C 154.027344 13.300781 155.363281 12.796875 156.519531 12.796875 C 157.671875 12.796875 158.757812 13.335938 159.769531 14.453125 L 156.519531 17.011719 C 155.867188 16.183594 154.640625 16.003906 153.808594 16.652344 L 153.699219 16.761719 C 153.339844 16.976562 153.085938 17.300781 152.941406 17.699219 C 152.835938 17.988281 152.90625 18.3125 153.085938 18.5625 C 153.230469 18.742188 153.449219 18.886719 153.699219 18.886719 C 153.988281 18.921875 154.496094 18.78125 155.21875 18.453125 C 157.023438 17.699219 158.394531 17.265625 159.335938 17.121094 C 160.128906 16.976562 160.960938 17.050781 161.71875 17.375 C 162.402344 17.660156 162.980469 18.167969 163.378906 18.78125 C 163.886719 19.5 164.171875 20.367188 164.210938 21.265625 C 164.246094 22.203125 163.992188 23.105469 163.488281 23.898438 C 162.835938 24.871094 162.007812 25.699219 161.03125 26.347656 C 159.046875 27.71875 157.421875 28.296875 156.121094 28.078125 C 154.710938 27.863281 153.554688 27.140625 152.726562 26.097656 Z M 152.726562 26.097656 "/>
</g>
</g>
</g>
</g>
</svg>
